# xmcd CD database file
#
# Track frame offsets:
#	150
#	26332
#	43179
#	61098
#	91295
#	112185
#	130194
#	147834
#	165443
#	187618
#	211037
#	231822
#	255511
#	267601
#	294758
#
# Disc length: 4283 seconds
#
# Revision: 0
# Processed by: cddbd v1.5.2PL0 Copyright (c) Steve Scherf et al.
# Submitted via: CDex 1.51
#
DISCID=c610b90f
DTITLE=QUINCY JONES - Handel's Messiah - A Soulful Celebration
DYEAR=1900
DGENRE=Jazz
TTITLE0=Comfort Ye My People
TTITLE1=Every Valley Shall Be Exalted
TTITLE2=And The Glory Of The Lord
TTITLE3=But Who May Abide The Day Of His Coming
TTITLE4=And He Shall Purify
TTITLE5=Behold, A Virgin Shall Conceive
TTITLE6=O Thou That Tellest Good Tidings To Zion
TTITLE7=For Unto Us A Child Is Born
TTITLE8=Glory To God
TTITLE9=Rejoice Greatly, O, Daughter Of Zion
TTITLE10=Behold, The Lamb Of God
TTITLE11=Lift Up Your Heads, O Ye Gates
TTITLE12=Why Do The Nations So Furiously Rage
TTITLE13=I Know That My Redeemer Liveth
TTITLE14=Hallelujah!
EXTD=
EXTT0=
EXTT1=
EXTT2=
EXTT3=
EXTT4=
EXTT5=
EXTT6=
EXTT7=
EXTT8=
EXTT9=
EXTT10=
EXTT11=
EXTT12=
EXTT13=
EXTT14=
PLAYORDER=
